<?xml version="1.0" encoding="utf-8"?>
<!-- Generator: Adobe Illustrator 27.0.0, SVG Export Plug-In . SVG Version: 6.00 Build 0)  -->
<svg version="1.1" xmlns="http://www.w3.org/2000/svg" xmlns:xlink="http://www.w3.org/1999/xlink" x="0px" y="0px"
	 viewBox="0 0 495.2 156.5" style="enable-background:new 0 0 495.2 156.5;" xml:space="preserve">
<style type="text/css">
	.st0{fill:none;stroke:#FFFFFF;stroke-width:12;stroke-miterlimit:10;}
	.st1{font-family:'Avenir-Roman';}
	.st2{font-size:104.34px;}
	.st3{fill:none;stroke:#FFFFFF;stroke-width:5;stroke-miterlimit:10;}
	.st4{font-size:110.9474px;}
	.st5{fill:#3D8036;}
	.st6{fill:#4EA638;}
	.st7{fill:#98C11F;}
	.st8{fill:#FBE731;}
	.st9{fill:#F5AE2F;}
	.st10{fill:#EB652F;}
	.st11{fill:#E6432D;}
	.st12{fill:none;}
	.st13{fill:#1D1D1B;}
	.st14{font-family:'MyriadPro-Regular';}
	.st15{font-size:5px;}
	.st16{fill:#F69131;stroke:#F69131;stroke-width:4;stroke-miterlimit:10;}
	.st17{fill:#FFFFFF;}
	.st18{font-size:25px;}
	.st19{font-family:'Avenir-Black';}
</style>
<g id="Warstwa_2_00000106856626966860710020000015685972478617750939_">
	<g>
		<text transform="matrix(1 0 0 1 95.9563 142.8701)" class="st0 st1 st2">H</text>
		<g id="Warstwa_1">
			<text transform="matrix(1.0636 0 0 1 23.362 142.8697)" class="st3 st1 st4">C</text>
		</g>
	</g>
	<g>
		<g id="Warstwa_3">
			<polygon class="st5" points="157.3,69.6 175.8,69.6 178.8,73.8 175.8,78 157.3,78 			"/>
			<polygon class="st6" points="157.3,80.4 179.2,80.4 182.2,84.6 179.2,88.8 157.3,88.8 			"/>
			<polygon class="st7" points="157.3,91.1 182.2,91.1 185.3,95.2 182.2,99.4 157.3,99.4 			"/>
			<polygon class="st8" points="185.3,101.8 188.3,106 185.3,110.2 157.3,110.2 157.3,101.8 			"/>
			<polygon class="st9" points="188.3,112.6 191.3,116.8 188.3,120.9 157.3,120.9 157.3,112.6 			"/>
			<polygon class="st10" points="191.2,123.1 194.2,127.2 191.2,131.4 157.3,131.4 157.3,123.1 			"/>
			<polygon class="st11" points="194.1,133.7 197.1,137.9 194.1,142.1 157.3,142.1 157.3,133.7 			"/>
		</g>
		<rect x="159.5" y="71.8" class="st12" width="3.2" height="3.9"/>
		<text transform="matrix(1 0 0 1 159.4842 75.3643)" class="st13 st14 st15">A</text>
		<rect x="159.4" y="93.5" class="st12" width="3.2" height="3.9"/>
		<text transform="matrix(1 0 0 1 159.4248 97.0363)" class="st13 st14 st15">C</text>
		<rect x="159.1" y="103.9" class="st12" width="3.6" height="3.9"/>
		<text transform="matrix(1 0 0 1 159.116 107.4343)" class="st13 st14 st15">D</text>
		<rect x="159.1" y="114.6" class="st12" width="3.6" height="3.9"/>
		<text transform="matrix(1 0 0 1 159.116 118.1243)" class="st13 st14 st15">E</text>
		<rect x="159.1" y="125.7" class="st12" width="3.6" height="3.9"/>
		<text transform="matrix(1 0 0 1 159.116 129.2405)" class="st13 st14 st15">F</text>
		<rect x="159.4" y="136" class="st12" width="3.6" height="3.9"/>
		<text transform="matrix(1 0 0 1 159.416 139.5043)" class="st13 st14 st15">G</text>
		<rect x="159.4" y="82.7" class="st12" width="3.2" height="3.9"/>
		<text transform="matrix(1 0 0 1 159.4248 86.2003)" class="st13 st14 st15">B</text>
		<path class="st12" d="M157.6,69"/>
		<path class="st12" d="M157.6,69"/>
		<line class="st12" x1="157.6" y1="149.1" x2="157.6" y2="143"/>
		<line class="st12" x1="157.7" y1="63.1" x2="163.7" y2="63"/>
	</g>
	<g>
		<polygon class="st16" points="106.4,12.1 13.3,61.9 13.3,70.7 106.4,21.6 		"/>
		<g>
			<polygon class="st16" points="110.2,12.1 203.4,61.9 203.4,70.7 110.2,21.6 			"/>
		</g>
	</g>
	<rect x="208.2" y="91.9" class="st12" width="308.3" height="35.1"/>
	<text transform="matrix(1 0 0 1 208.2375 110.8312)"><tspan x="0" y="0" class="st17 st1 st18">THERMAL </tspan><tspan x="122.2" y="0" class="st17 st19 st18">INSULATION</tspan></text>
</g>
<g id="Warstwa_4">
</g>
</svg>
