<?xml version="1.0" encoding="utf-8"?>
<!-- Generator: Adobe Illustrator 27.0.0, SVG Export Plug-In . SVG Version: 6.00 Build 0)  -->
<svg version="1.1" id="Warstwa_1" xmlns="http://www.w3.org/2000/svg" xmlns:xlink="http://www.w3.org/1999/xlink" x="0px" y="0px"
	 viewBox="0 0 495.2 156.5" style="enable-background:new 0 0 495.2 156.5;" xml:space="preserve">
<style type="text/css">
	.st0{enable-background:new    ;}
	.st1{fill:none;stroke:#1D1D1B;stroke-width:5;stroke-miterlimit:10;}
	.st2{font-family:'Avenir-Roman';}
	.st3{font-size:107px;}
	.st4{letter-spacing:-6;}
	.st5{fill:none;stroke:#1D1D1B;stroke-width:12;stroke-miterlimit:10;}
	.st6{font-size:104.34px;}
	.st7{fill:#3D8036;}
	.st8{fill:#4EA638;}
	.st9{fill:#98C11F;}
	.st10{fill:#FBE731;}
	.st11{fill:#F5AE2F;}
	.st12{fill:#EB652F;}
	.st13{fill:#E6432D;}
	.st14{fill:none;}
	.st15{fill:#1D1D1B;}
	.st16{font-family:'ArialMT';}
	.st17{font-size:5px;}
	.st18{fill:#F69131;stroke:#F69131;stroke-width:4;stroke-miterlimit:10;}
	.st19{font-size:25px;}
	.st20{font-family:'Avenir-Black';}
</style>
<g id="Warstwa_2_00000106856626966860710020000015685972478617750939_">
	<g>
		<text transform="matrix(1 0 0 1 24.8734 140.1401)" class="st0"><tspan x="0" y="0" class="st1 st2 st3 st4">C</tspan><tspan x="68.7" y="0" class="st5 st2 st6">H</tspan></text>
	</g>
	<g>
		<g id="Warstwa_3">
			<polygon class="st7" points="154.7,66.5 173.2,66.5 176.2,70.7 173.2,74.9 154.7,74.9 			"/>
			<polygon class="st8" points="154.7,77.3 176.6,77.3 179.6,81.5 176.6,85.7 154.7,85.7 			"/>
			<polygon class="st9" points="154.7,87.9 179.6,87.9 182.6,92.1 179.6,96.3 154.7,96.3 			"/>
			<polygon class="st10" points="182.7,98.7 185.7,102.9 182.7,107.1 154.7,107.1 154.7,98.7 			"/>
			<polygon class="st11" points="185.6,109.5 188.6,113.6 185.6,117.8 154.7,117.8 154.7,109.5 			"/>
			<polygon class="st12" points="188.6,119.9 191.6,124.1 188.6,128.3 154.7,128.3 154.7,119.9 			"/>
			<polygon class="st13" points="191.5,130.6 194.5,134.8 191.5,139 154.7,139 154.7,130.6 			"/>
		</g>
		<rect x="156.9" y="68.7" class="st14" width="3.2" height="3.9"/>
		<text transform="matrix(1 0 0 1 156.8624 72.2517)" class="st15 st16 st17">A</text>
		<rect x="156.8" y="90.4" class="st14" width="3.2" height="3.9"/>
		<text transform="matrix(1 0 0 1 156.803 93.9237)" class="st15 st16 st17">C</text>
		<rect x="156.5" y="100.8" class="st14" width="3.6" height="3.9"/>
		<text transform="matrix(1 0 0 1 156.4942 104.3217)" class="st15 st16 st17">D</text>
		<rect x="156.5" y="111.5" class="st14" width="3.6" height="3.9"/>
		<text transform="matrix(1 0 0 1 156.4942 115.0117)" class="st15 st16 st17">E</text>
		<rect x="156.5" y="122.6" class="st14" width="3.6" height="3.9"/>
		<text transform="matrix(1 0 0 1 156.4942 126.1279)" class="st15 st16 st17">F</text>
		<rect x="156.8" y="132.8" class="st14" width="3.6" height="3.9"/>
		<text transform="matrix(1 0 0 1 156.7942 136.3917)" class="st15 st16 st17">G</text>
		<rect x="156.8" y="79.5" class="st14" width="3.2" height="3.9"/>
		<text transform="matrix(1 0 0 1 156.803 83.0877)" class="st15 st16 st17">B</text>
		<path class="st14" d="M155,65.8"/>
		<path class="st14" d="M155,65.8"/>
		<line class="st14" x1="155" y1="146" x2="155" y2="139.9"/>
		<line class="st14" x1="155.1" y1="60" x2="161" y2="59.9"/>
	</g>
	<g>
		<polygon class="st18" points="106.4,12.1 13.3,61.9 13.3,70.7 106.4,21.6 		"/>
		<g>
			<polygon class="st18" points="110.2,12.1 203.4,61.9 203.4,70.7 110.2,21.6 			"/>
		</g>
	</g>
	<rect x="208.2" y="91.9" class="st14" width="308.3" height="35.1"/>
	<text transform="matrix(1 0 0 1 208.2375 110.8312)" class="st15 st2 st19">THERMAL</text>
	<text transform="matrix(1 0 0 1 330.4375 110.8312)" class="st15 st20 st19">INSULATION</text>
</g>
<g id="Warstwa_3_00000164504563624008667260000001927073673713523348_">
</g>
</svg>
